<mxfile host="app.diagrams.net" agent="Mozilla/5.0 (X11; Linux x86_64) AppleWebKit/537.36 (KHTML, like Gecko) Chrome/133.0.0.0 Safari/537.36" version="26.0.16">
  <diagram name="Page-1" id="hzd-D19eXIjFkVym1N0B">
    <mxGraphModel dx="2632" dy="1077" grid="1" gridSize="10" guides="1" tooltips="1" connect="1" arrows="1" fold="1" page="1" pageScale="1" pageWidth="583" pageHeight="827" math="0" shadow="0">
      <root>
        <mxCell id="0" />
        <mxCell id="1" parent="0" />
        <mxCell id="1Q9HpyoO4BaZ_d1kJ7cU-3" value="" style="edgeStyle=orthogonalEdgeStyle;rounded=0;orthogonalLoop=1;jettySize=auto;html=1;" parent="1" source="1Q9HpyoO4BaZ_d1kJ7cU-1" target="1Q9HpyoO4BaZ_d1kJ7cU-2" edge="1">
          <mxGeometry relative="1" as="geometry" />
        </mxCell>
        <mxCell id="1Q9HpyoO4BaZ_d1kJ7cU-1" value="Start" style="ellipse;whiteSpace=wrap;html=1;" parent="1" vertex="1">
          <mxGeometry x="70" y="120" width="120" height="80" as="geometry" />
        </mxCell>
        <mxCell id="1Q9HpyoO4BaZ_d1kJ7cU-5" value="" style="edgeStyle=orthogonalEdgeStyle;rounded=0;orthogonalLoop=1;jettySize=auto;html=1;entryX=0;entryY=0.5;entryDx=0;entryDy=0;" parent="1" source="1Q9HpyoO4BaZ_d1kJ7cU-2" target="1Q9HpyoO4BaZ_d1kJ7cU-6" edge="1">
          <mxGeometry relative="1" as="geometry">
            <mxPoint x="470" y="160" as="targetPoint" />
          </mxGeometry>
        </mxCell>
        <mxCell id="1Q9HpyoO4BaZ_d1kJ7cU-2" value="Ariza TRIS" style="whiteSpace=wrap;html=1;" parent="1" vertex="1">
          <mxGeometry x="270" y="130" width="120" height="60" as="geometry" />
        </mxCell>
        <mxCell id="1Q9HpyoO4BaZ_d1kJ7cU-9" value="" style="edgeStyle=orthogonalEdgeStyle;rounded=0;orthogonalLoop=1;jettySize=auto;html=1;" parent="1" source="1Q9HpyoO4BaZ_d1kJ7cU-6" target="1Q9HpyoO4BaZ_d1kJ7cU-8" edge="1">
          <mxGeometry relative="1" as="geometry" />
        </mxCell>
        <mxCell id="1Q9HpyoO4BaZ_d1kJ7cU-10" value="Yuq" style="edgeLabel;html=1;align=center;verticalAlign=middle;resizable=0;points=[];" parent="1Q9HpyoO4BaZ_d1kJ7cU-9" vertex="1" connectable="0">
          <mxGeometry x="-0.4133" y="1" relative="1" as="geometry">
            <mxPoint as="offset" />
          </mxGeometry>
        </mxCell>
        <mxCell id="1Q9HpyoO4BaZ_d1kJ7cU-12" value="" style="edgeStyle=orthogonalEdgeStyle;rounded=0;orthogonalLoop=1;jettySize=auto;html=1;" parent="1" source="1Q9HpyoO4BaZ_d1kJ7cU-6" target="1Q9HpyoO4BaZ_d1kJ7cU-11" edge="1">
          <mxGeometry relative="1" as="geometry" />
        </mxCell>
        <mxCell id="1Q9HpyoO4BaZ_d1kJ7cU-13" value="Ha" style="edgeLabel;html=1;align=center;verticalAlign=middle;resizable=0;points=[];" parent="1Q9HpyoO4BaZ_d1kJ7cU-12" vertex="1" connectable="0">
          <mxGeometry x="-0.2533" y="1" relative="1" as="geometry">
            <mxPoint as="offset" />
          </mxGeometry>
        </mxCell>
        <mxCell id="1Q9HpyoO4BaZ_d1kJ7cU-6" value="Mahsulot Nazoratga tushadimi&amp;nbsp;" style="rhombus;whiteSpace=wrap;html=1;" parent="1" vertex="1">
          <mxGeometry x="470" y="115" width="90" height="90" as="geometry" />
        </mxCell>
        <mxCell id="1Q9HpyoO4BaZ_d1kJ7cU-8" value="Ruxsat" style="whiteSpace=wrap;html=1;" parent="1" vertex="1">
          <mxGeometry x="455" y="290" width="120" height="60" as="geometry" />
        </mxCell>
        <mxCell id="1Q9HpyoO4BaZ_d1kJ7cU-15" value="" style="edgeStyle=orthogonalEdgeStyle;rounded=0;orthogonalLoop=1;jettySize=auto;html=1;" parent="1" source="1Q9HpyoO4BaZ_d1kJ7cU-11" target="1Q9HpyoO4BaZ_d1kJ7cU-14" edge="1">
          <mxGeometry relative="1" as="geometry" />
        </mxCell>
        <mxCell id="1Q9HpyoO4BaZ_d1kJ7cU-11" value="Sertifikatlashtirish organlari ogohlatirish&lt;span style=&quot;background-color: transparent; color: light-dark(rgb(0, 0, 0), rgb(255, 255, 255));&quot;&gt;&amp;nbsp;&lt;/span&gt;" style="whiteSpace=wrap;html=1;" parent="1" vertex="1">
          <mxGeometry x="610" y="130" width="120" height="60" as="geometry" />
        </mxCell>
        <mxCell id="1Q9HpyoO4BaZ_d1kJ7cU-17" value="" style="edgeStyle=orthogonalEdgeStyle;rounded=0;orthogonalLoop=1;jettySize=auto;html=1;" parent="1" source="1Q9HpyoO4BaZ_d1kJ7cU-14" target="1Q9HpyoO4BaZ_d1kJ7cU-16" edge="1">
          <mxGeometry relative="1" as="geometry" />
        </mxCell>
        <mxCell id="1Q9HpyoO4BaZ_d1kJ7cU-14" value="Nazoratga olish uchun ariza topshirish" style="whiteSpace=wrap;html=1;" parent="1" vertex="1">
          <mxGeometry x="810" y="130" width="120" height="60" as="geometry" />
        </mxCell>
        <mxCell id="1Q9HpyoO4BaZ_d1kJ7cU-19" value="" style="edgeStyle=orthogonalEdgeStyle;rounded=0;orthogonalLoop=1;jettySize=auto;html=1;" parent="1" source="1Q9HpyoO4BaZ_d1kJ7cU-16" target="1Q9HpyoO4BaZ_d1kJ7cU-18" edge="1">
          <mxGeometry relative="1" as="geometry" />
        </mxCell>
        <mxCell id="1Q9HpyoO4BaZ_d1kJ7cU-16" value="Sertifikat rasmiylashtirish bosqichiga yetib kelish&amp;nbsp;" style="whiteSpace=wrap;html=1;" parent="1" vertex="1">
          <mxGeometry x="810" y="270" width="120" height="60" as="geometry" />
        </mxCell>
        <mxCell id="upEZSMXCiW83WvQoobEx-5" value="" style="edgeStyle=orthogonalEdgeStyle;rounded=0;orthogonalLoop=1;jettySize=auto;html=1;" edge="1" parent="1" source="1Q9HpyoO4BaZ_d1kJ7cU-18" target="upEZSMXCiW83WvQoobEx-4">
          <mxGeometry relative="1" as="geometry" />
        </mxCell>
        <mxCell id="1Q9HpyoO4BaZ_d1kJ7cU-18" value="Barcha malumotlar biriktirilgan xodimga ko&#39;rinadi&amp;nbsp;" style="whiteSpace=wrap;html=1;" parent="1" vertex="1">
          <mxGeometry x="810" y="410" width="120" height="60" as="geometry" />
        </mxCell>
        <mxCell id="1Q9HpyoO4BaZ_d1kJ7cU-25" value="" style="edgeStyle=orthogonalEdgeStyle;rounded=0;orthogonalLoop=1;jettySize=auto;html=1;exitX=0;exitY=0.5;exitDx=0;exitDy=0;entryX=1;entryY=0.5;entryDx=0;entryDy=0;" parent="1" source="upEZSMXCiW83WvQoobEx-4" target="1Q9HpyoO4BaZ_d1kJ7cU-35" edge="1">
          <mxGeometry relative="1" as="geometry">
            <Array as="points">
              <mxPoint x="835" y="580" />
              <mxPoint x="770" y="580" />
              <mxPoint x="770" y="650" />
            </Array>
            <mxPoint x="810" y="580" as="sourcePoint" />
            <mxPoint x="740" y="670" as="targetPoint" />
          </mxGeometry>
        </mxCell>
        <mxCell id="upEZSMXCiW83WvQoobEx-8" value="Ha" style="edgeLabel;html=1;align=center;verticalAlign=middle;resizable=0;points=[];fontSize=13;" vertex="1" connectable="0" parent="1Q9HpyoO4BaZ_d1kJ7cU-25">
          <mxGeometry x="-0.5248" y="1" relative="1" as="geometry">
            <mxPoint as="offset" />
          </mxGeometry>
        </mxCell>
        <mxCell id="1Q9HpyoO4BaZ_d1kJ7cU-26" style="edgeStyle=orthogonalEdgeStyle;rounded=0;orthogonalLoop=1;jettySize=auto;html=1;exitX=0;exitY=0.5;exitDx=0;exitDy=0;entryX=1;entryY=0.5;entryDx=0;entryDy=0;" parent="1" source="upEZSMXCiW83WvQoobEx-4" target="1Q9HpyoO4BaZ_d1kJ7cU-27" edge="1">
          <mxGeometry relative="1" as="geometry">
            <mxPoint x="730" y="500" as="targetPoint" />
            <Array as="points">
              <mxPoint x="835" y="565" />
              <mxPoint x="770" y="565" />
              <mxPoint x="770" y="560" />
            </Array>
            <mxPoint x="810" y="565" as="sourcePoint" />
          </mxGeometry>
        </mxCell>
        <mxCell id="1Q9HpyoO4BaZ_d1kJ7cU-40" value="" style="edgeStyle=orthogonalEdgeStyle;rounded=0;orthogonalLoop=1;jettySize=auto;html=1;" parent="1" source="1Q9HpyoO4BaZ_d1kJ7cU-22" target="1Q9HpyoO4BaZ_d1kJ7cU-39" edge="1">
          <mxGeometry relative="1" as="geometry" />
        </mxCell>
        <mxCell id="1Q9HpyoO4BaZ_d1kJ7cU-22" value="Salbiy deb topiladi.&lt;div&gt;1)Rahbar&lt;/div&gt;&lt;div&gt;2)Bo&#39;lim&lt;/div&gt;&lt;div&gt;&lt;span style=&quot;background-color: transparent; color: light-dark(rgb(0, 0, 0), rgb(255, 255, 255));&quot;&gt;3)Zam&lt;/span&gt;&lt;/div&gt;" style="whiteSpace=wrap;html=1;" parent="1" vertex="1">
          <mxGeometry x="815" y="730" width="120" height="60" as="geometry" />
        </mxCell>
        <mxCell id="1Q9HpyoO4BaZ_d1kJ7cU-29" value="" style="edgeStyle=orthogonalEdgeStyle;rounded=0;orthogonalLoop=1;jettySize=auto;html=1;entryX=0.5;entryY=1;entryDx=0;entryDy=0;" parent="1" source="1Q9HpyoO4BaZ_d1kJ7cU-27" target="upEZSMXCiW83WvQoobEx-17" edge="1">
          <mxGeometry relative="1" as="geometry">
            <mxPoint x="470" y="460" as="targetPoint" />
          </mxGeometry>
        </mxCell>
        <mxCell id="1Q9HpyoO4BaZ_d1kJ7cU-27" value="Bartaraf etib bo&#39;lmaydi&amp;nbsp;" style="rounded=0;whiteSpace=wrap;html=1;" parent="1" vertex="1">
          <mxGeometry x="470" y="530" width="120" height="60" as="geometry" />
        </mxCell>
        <mxCell id="1Q9HpyoO4BaZ_d1kJ7cU-31" value="" style="edgeStyle=orthogonalEdgeStyle;rounded=0;orthogonalLoop=1;jettySize=auto;html=1;exitX=1;exitY=0.5;exitDx=0;exitDy=0;" parent="1" source="upEZSMXCiW83WvQoobEx-17" target="1Q9HpyoO4BaZ_d1kJ7cU-30" edge="1">
          <mxGeometry relative="1" as="geometry">
            <mxPoint x="530" y="430" as="sourcePoint" />
          </mxGeometry>
        </mxCell>
        <mxCell id="upEZSMXCiW83WvQoobEx-20" value="Ha" style="edgeLabel;html=1;align=center;verticalAlign=middle;resizable=0;points=[];fontSize=13;" vertex="1" connectable="0" parent="1Q9HpyoO4BaZ_d1kJ7cU-31">
          <mxGeometry x="-0.2433" y="-2" relative="1" as="geometry">
            <mxPoint as="offset" />
          </mxGeometry>
        </mxCell>
        <mxCell id="1Q9HpyoO4BaZ_d1kJ7cU-34" value="" style="edgeStyle=orthogonalEdgeStyle;rounded=0;orthogonalLoop=1;jettySize=auto;html=1;exitX=-0.058;exitY=0.506;exitDx=0;exitDy=0;exitPerimeter=0;" parent="1" source="upEZSMXCiW83WvQoobEx-17" target="1Q9HpyoO4BaZ_d1kJ7cU-33" edge="1">
          <mxGeometry relative="1" as="geometry">
            <mxPoint x="410" y="430" as="sourcePoint" />
          </mxGeometry>
        </mxCell>
        <mxCell id="upEZSMXCiW83WvQoobEx-19" value="Yuq" style="edgeLabel;html=1;align=center;verticalAlign=middle;resizable=0;points=[];fontSize=13;" vertex="1" connectable="0" parent="1Q9HpyoO4BaZ_d1kJ7cU-34">
          <mxGeometry x="-0.1997" relative="1" as="geometry">
            <mxPoint as="offset" />
          </mxGeometry>
        </mxCell>
        <mxCell id="1Q9HpyoO4BaZ_d1kJ7cU-30" value="Ruxsat" style="whiteSpace=wrap;html=1;rounded=0;" parent="1" vertex="1">
          <mxGeometry x="610" y="384" width="120" height="60" as="geometry" />
        </mxCell>
        <mxCell id="1Q9HpyoO4BaZ_d1kJ7cU-33" value="Bartaraf etiladi&amp;nbsp;" style="whiteSpace=wrap;html=1;rounded=0;" parent="1" vertex="1">
          <mxGeometry x="210" y="384" width="120" height="60" as="geometry" />
        </mxCell>
        <mxCell id="1Q9HpyoO4BaZ_d1kJ7cU-51" style="edgeStyle=orthogonalEdgeStyle;rounded=0;orthogonalLoop=1;jettySize=auto;html=1;exitX=0;exitY=0.25;exitDx=0;exitDy=0;entryX=0.5;entryY=1;entryDx=0;entryDy=0;" parent="1" source="1Q9HpyoO4BaZ_d1kJ7cU-35" target="1Q9HpyoO4BaZ_d1kJ7cU-52" edge="1">
          <mxGeometry relative="1" as="geometry">
            <mxPoint x="280" y="620" as="targetPoint" />
          </mxGeometry>
        </mxCell>
        <mxCell id="1Q9HpyoO4BaZ_d1kJ7cU-55" value="" style="edgeStyle=orthogonalEdgeStyle;rounded=0;orthogonalLoop=1;jettySize=auto;html=1;" parent="1" source="1Q9HpyoO4BaZ_d1kJ7cU-35" target="1Q9HpyoO4BaZ_d1kJ7cU-54" edge="1">
          <mxGeometry relative="1" as="geometry" />
        </mxCell>
        <mxCell id="1Q9HpyoO4BaZ_d1kJ7cU-35" value="Tasdiq&lt;div&gt;1) Bo&#39;lim&lt;/div&gt;&lt;div&gt;2) Rahbar&lt;/div&gt;&lt;div&gt;3) Zam&lt;/div&gt;" style="whiteSpace=wrap;html=1;" parent="1" vertex="1">
          <mxGeometry x="350" y="620" width="120" height="60" as="geometry" />
        </mxCell>
        <mxCell id="1Q9HpyoO4BaZ_d1kJ7cU-42" value="" style="edgeStyle=orthogonalEdgeStyle;rounded=0;orthogonalLoop=1;jettySize=auto;html=1;" parent="1" source="1Q9HpyoO4BaZ_d1kJ7cU-39" target="1Q9HpyoO4BaZ_d1kJ7cU-41" edge="1">
          <mxGeometry relative="1" as="geometry" />
        </mxCell>
        <mxCell id="1Q9HpyoO4BaZ_d1kJ7cU-39" value="Sertifikatlashtirish organlari kamchiliklarni bartaraf etadi&amp;nbsp;" style="whiteSpace=wrap;html=1;" parent="1" vertex="1">
          <mxGeometry x="610" y="740" width="120" height="60" as="geometry" />
        </mxCell>
        <mxCell id="upEZSMXCiW83WvQoobEx-12" value="" style="edgeStyle=orthogonalEdgeStyle;rounded=0;orthogonalLoop=1;jettySize=auto;html=1;" edge="1" parent="1" source="1Q9HpyoO4BaZ_d1kJ7cU-41" target="upEZSMXCiW83WvQoobEx-11">
          <mxGeometry relative="1" as="geometry" />
        </mxCell>
        <mxCell id="1Q9HpyoO4BaZ_d1kJ7cU-41" value="Leviy praviy(xodim)&lt;div&gt;1)vedio&lt;/div&gt;&lt;div&gt;&lt;span style=&quot;background-color: transparent; color: light-dark(rgb(0, 0, 0), rgb(255, 255, 255));&quot;&gt;2)foto&lt;/span&gt;&lt;/div&gt;" style="whiteSpace=wrap;html=1;" parent="1" vertex="1">
          <mxGeometry x="410" y="740" width="120" height="60" as="geometry" />
        </mxCell>
        <mxCell id="1Q9HpyoO4BaZ_d1kJ7cU-43" value="Salbiy" style="whiteSpace=wrap;html=1;" parent="1" vertex="1">
          <mxGeometry x="10" y="840" width="120" height="60" as="geometry" />
        </mxCell>
        <mxCell id="1Q9HpyoO4BaZ_d1kJ7cU-46" style="edgeStyle=orthogonalEdgeStyle;rounded=0;orthogonalLoop=1;jettySize=auto;html=1;exitX=0.5;exitY=1;exitDx=0;exitDy=0;" parent="1" source="1Q9HpyoO4BaZ_d1kJ7cU-43" target="1Q9HpyoO4BaZ_d1kJ7cU-39" edge="1">
          <mxGeometry relative="1" as="geometry">
            <mxPoint x="90" y="951" as="sourcePoint" />
            <mxPoint x="696.1299999999997" y="899.9999999999999" as="targetPoint" />
            <Array as="points">
              <mxPoint x="70" y="940" />
              <mxPoint x="670" y="940" />
            </Array>
          </mxGeometry>
        </mxCell>
        <mxCell id="1Q9HpyoO4BaZ_d1kJ7cU-50" style="edgeStyle=orthogonalEdgeStyle;rounded=0;orthogonalLoop=1;jettySize=auto;html=1;entryX=0;entryY=0.75;entryDx=0;entryDy=0;" parent="1" source="1Q9HpyoO4BaZ_d1kJ7cU-48" target="1Q9HpyoO4BaZ_d1kJ7cU-35" edge="1">
          <mxGeometry relative="1" as="geometry">
            <mxPoint x="420" y="670" as="targetPoint" />
            <Array as="points">
              <mxPoint x="80" y="660" />
              <mxPoint x="160" y="660" />
              <mxPoint x="160" y="665" />
            </Array>
          </mxGeometry>
        </mxCell>
        <mxCell id="1Q9HpyoO4BaZ_d1kJ7cU-48" value="Ijobiy" style="rounded=0;whiteSpace=wrap;html=1;" parent="1" vertex="1">
          <mxGeometry x="10" y="720" width="120" height="60" as="geometry" />
        </mxCell>
        <mxCell id="1Q9HpyoO4BaZ_d1kJ7cU-52" value="Ijobiy" style="rounded=0;whiteSpace=wrap;html=1;" parent="1" vertex="1">
          <mxGeometry x="-10" y="550" width="120" height="60" as="geometry" />
        </mxCell>
        <mxCell id="1Q9HpyoO4BaZ_d1kJ7cU-54" value="Qayta tahlil" style="whiteSpace=wrap;html=1;" parent="1" vertex="1">
          <mxGeometry x="210" y="510" width="120" height="60" as="geometry" />
        </mxCell>
        <mxCell id="upEZSMXCiW83WvQoobEx-6" style="edgeStyle=orthogonalEdgeStyle;rounded=0;orthogonalLoop=1;jettySize=auto;html=1;entryX=0.5;entryY=0;entryDx=0;entryDy=0;" edge="1" parent="1" source="upEZSMXCiW83WvQoobEx-4" target="1Q9HpyoO4BaZ_d1kJ7cU-22">
          <mxGeometry relative="1" as="geometry" />
        </mxCell>
        <mxCell id="upEZSMXCiW83WvQoobEx-7" value="Yuq" style="edgeLabel;html=1;align=center;verticalAlign=middle;resizable=0;points=[];fontSize=13;" vertex="1" connectable="0" parent="upEZSMXCiW83WvQoobEx-6">
          <mxGeometry x="-0.4667" y="3" relative="1" as="geometry">
            <mxPoint as="offset" />
          </mxGeometry>
        </mxCell>
        <mxCell id="upEZSMXCiW83WvQoobEx-4" value="Tahlil ijobiymi" style="rhombus;whiteSpace=wrap;html=1;" vertex="1" parent="1">
          <mxGeometry x="835" y="530" width="80" height="80" as="geometry" />
        </mxCell>
        <mxCell id="upEZSMXCiW83WvQoobEx-13" style="edgeStyle=orthogonalEdgeStyle;rounded=0;orthogonalLoop=1;jettySize=auto;html=1;entryX=1;entryY=0.5;entryDx=0;entryDy=0;" edge="1" parent="1" source="upEZSMXCiW83WvQoobEx-11" target="1Q9HpyoO4BaZ_d1kJ7cU-43">
          <mxGeometry relative="1" as="geometry">
            <Array as="points">
              <mxPoint x="255" y="870" />
            </Array>
          </mxGeometry>
        </mxCell>
        <mxCell id="upEZSMXCiW83WvQoobEx-14" value="Yuq" style="edgeLabel;html=1;align=center;verticalAlign=middle;resizable=0;points=[];fontSize=13;" vertex="1" connectable="0" parent="upEZSMXCiW83WvQoobEx-13">
          <mxGeometry x="-0.8019" y="2" relative="1" as="geometry">
            <mxPoint as="offset" />
          </mxGeometry>
        </mxCell>
        <mxCell id="upEZSMXCiW83WvQoobEx-15" style="edgeStyle=orthogonalEdgeStyle;rounded=0;orthogonalLoop=1;jettySize=auto;html=1;entryX=1;entryY=0.5;entryDx=0;entryDy=0;" edge="1" parent="1" source="upEZSMXCiW83WvQoobEx-11" target="1Q9HpyoO4BaZ_d1kJ7cU-48">
          <mxGeometry relative="1" as="geometry" />
        </mxCell>
        <mxCell id="upEZSMXCiW83WvQoobEx-16" value="Ha" style="edgeLabel;html=1;align=center;verticalAlign=middle;resizable=0;points=[];fontSize=13;" vertex="1" connectable="0" parent="upEZSMXCiW83WvQoobEx-15">
          <mxGeometry x="-0.34" relative="1" as="geometry">
            <mxPoint as="offset" />
          </mxGeometry>
        </mxCell>
        <mxCell id="upEZSMXCiW83WvQoobEx-11" value="&lt;span style=&quot;color: rgb(0, 0, 0); font-family: Helvetica; font-size: 12px; font-style: normal; font-variant-ligatures: normal; font-variant-caps: normal; font-weight: 400; letter-spacing: normal; orphans: 2; text-align: center; text-indent: 0px; text-transform: none; widows: 2; word-spacing: 0px; -webkit-text-stroke-width: 0px; white-space: normal; background-color: rgb(251, 251, 251); text-decoration-thickness: initial; text-decoration-style: initial; text-decoration-color: initial; display: inline !important; float: none;&quot;&gt;Kamchiliklar bartaraf etildimi&lt;/span&gt;" style="rhombus;whiteSpace=wrap;html=1;" vertex="1" parent="1">
          <mxGeometry x="210" y="725" width="90" height="90" as="geometry" />
        </mxCell>
        <mxCell id="upEZSMXCiW83WvQoobEx-17" value="Tasdiqlandimi" style="rhombus;whiteSpace=wrap;html=1;" vertex="1" parent="1">
          <mxGeometry x="430" y="374" width="80" height="80" as="geometry" />
        </mxCell>
      </root>
    </mxGraphModel>
  </diagram>
</mxfile>
